<svg width="26" height="26" viewBox="0 0 26 26" fill="none" xmlns="http://www.w3.org/2000/svg">
<g id="close_ring">
<path id="Ellipse 86" d="M12.572 24.156C11.0618 24.156 9.56641 23.8585 8.17116 23.2806C6.77592 22.7027 5.50817 21.8556 4.44029 20.7877C3.37242 19.7198 2.52534 18.4521 1.94741 17.0568C1.36948 15.6616 1.07202 14.1662 1.07202 12.656C1.07202 11.1458 1.36948 9.65036 1.94741 8.25511C2.52534 6.85987 3.37242 5.59212 4.44029 4.52425C5.50817 3.45637 6.77592 2.60929 8.17116 2.03136C9.56641 1.45343 11.0618 1.15598 12.572 1.15598C14.0822 1.15598 15.5776 1.45343 16.9729 2.03136C18.3681 2.60929 19.6359 3.45638 20.7038 4.52425C21.7716 5.59212 22.6187 6.85987 23.1966 8.25512C23.7746 9.65036 24.072 11.1458 24.072 12.656C24.072 14.1662 23.7746 15.6616 23.1966 17.0568C22.6187 18.4521 21.7716 19.7198 20.7037 20.7877C19.6359 21.8556 18.3681 22.7027 16.9729 23.2806C15.5776 23.8585 14.0822 24.156 12.572 24.156L12.572 24.156Z" stroke="#0B0B0B" stroke-width="2" stroke-linecap="round"/>
<path id="Vector 112" d="M8.57251 8.65598L16.5725 16.656" stroke="#0B0B0B" stroke-width="2" stroke-linecap="round"/>
<path id="Vector 113" d="M16.5725 8.65598L8.57251 16.656" stroke="#0B0B0B" stroke-width="2" stroke-linecap="round"/>
</g>
</svg>
