<svg width="25" height="25" viewBox="0 0 25 25" fill="none" xmlns="http://www.w3.org/2000/svg">
<g id="lucide:tag" clip-path="url(#clip0_112_120)">
<g id="Group">
<path id="Vector" d="M11.7501 2.71747C12.1252 2.34229 12.6339 2.13146 13.1644 2.13135H20.3379C20.8684 2.13135 21.3772 2.3421 21.7524 2.71725C22.1275 3.0924 22.3383 3.60121 22.3383 4.13175V11.3052C22.3381 11.8357 22.1273 12.3444 21.7521 12.7195L13.0464 21.4253C12.5918 21.877 11.9769 22.1305 11.336 22.1305C10.6951 22.1305 10.0803 21.877 9.62568 21.4253L3.04435 14.8439C2.59261 14.3893 2.33907 13.7745 2.33907 13.1336C2.33907 12.4927 2.59261 11.8778 3.04435 11.4232L11.7501 2.71747Z" stroke="black" stroke-width="2.69492" stroke-linecap="round" stroke-linejoin="round"/>
<path id="Vector_2" d="M16.8372 8.13256C16.561 8.13256 16.3371 7.90865 16.3371 7.63246C16.3371 7.35626 16.561 7.13235 16.8372 7.13235C17.1134 7.13235 17.3373 7.35626 17.3373 7.63246C17.3373 7.90865 17.1134 8.13256 16.8372 8.13256Z" fill="black" stroke="black" stroke-width="2.69492" stroke-linecap="round" stroke-linejoin="round"/>
</g>
</g>
<defs>
<clipPath id="clip0_112_120">
<rect width="24" height="24" fill="white" transform="matrix(-1 0 0 1 24.3386 0.13092)"/>
</clipPath>
</defs>
</svg>
