<svg width="32" height="27" viewBox="0 0 32 27" fill="none" xmlns="http://www.w3.org/2000/svg">
<g id="Hand">
<path d="M9.78855 13.9384C8.9522 13.0524 7.55588 13.0113 6.66991 13.8477C5.78394 14.684 5.74286 16.0804 6.57921 16.9664L11.6258 22.3153C15.8064 26.7463 22.788 26.9494 27.219 22.7688C31.6501 18.5882 31.8531 11.6066 27.6725 7.17555L23.6353 2.89642C22.7989 2.01045 21.4026 1.96934 20.5166 2.80569C19.6306 3.64204 19.5896 5.03839 20.4259 5.92436L19.4166 4.85457C18.5802 3.9686 17.1839 3.92754 16.2979 4.76389C15.412 5.60024 15.3709 6.99654 16.2073 7.88251L15.1979 6.81272C14.3616 5.92675 12.9653 5.88569 12.0793 6.72204C11.1933 7.55839 11.1522 8.95469 11.9886 9.84066L4.92339 2.35218C4.08704 1.46621 2.69071 1.42515 1.80474 2.2615C0.918765 3.09785 0.87768 4.49419 1.71403 5.38016L13.3219 17.6829L9.78855 13.9384Z" stroke="#222222" stroke-width="2.01675" stroke-miterlimit="10" stroke-linecap="round" stroke-linejoin="round"/>
<path d="M9.78855 13.9384C8.9522 13.0524 7.55588 13.0113 6.66991 13.8477C5.78394 14.684 5.74286 16.0804 6.57921 16.9664L11.6258 22.3153C15.8064 26.7463 22.788 26.9494 27.219 22.7688C31.6501 18.5882 31.8531 11.6066 27.6725 7.17555L23.6353 2.89642C22.7989 2.01045 21.4026 1.96934 20.5166 2.80569C19.6306 3.64204 19.5896 5.03839 20.4259 5.92436L19.4166 4.85457C18.5802 3.9686 17.1839 3.92754 16.2979 4.76389C15.412 5.60024 15.3709 6.99654 16.2073 7.88251L15.1979 6.81272C14.3616 5.92675 12.9653 5.88569 12.0793 6.72204C11.1933 7.55839 11.1522 8.95469 11.9886 9.84066L4.92339 2.35218C4.08704 1.46621 2.69071 1.42515 1.80474 2.2615C0.918765 3.09785 0.87768 4.49419 1.71403 5.38016L13.3219 17.6829L9.78855 13.9384Z" stroke="#222222" stroke-width="2.01675" stroke-miterlimit="10" stroke-linecap="round" stroke-linejoin="round"/>
<path d="M9.78855 13.9384C8.9522 13.0524 7.55588 13.0113 6.66991 13.8477C5.78394 14.684 5.74286 16.0804 6.57921 16.9664L11.6258 22.3153C15.8064 26.7463 22.788 26.9494 27.219 22.7688C31.6501 18.5882 31.8531 11.6066 27.6725 7.17555L23.6353 2.89642C22.7989 2.01045 21.4026 1.96934 20.5166 2.80569C19.6306 3.64204 19.5896 5.03839 20.4259 5.92436L19.4166 4.85457C18.5802 3.9686 17.1839 3.92754 16.2979 4.76389C15.412 5.60024 15.3709 6.99654 16.2073 7.88251L15.1979 6.81272C14.3616 5.92675 12.9653 5.88569 12.0793 6.72204C11.1933 7.55839 11.1522 8.95469 11.9886 9.84066L4.92339 2.35218C4.08704 1.46621 2.69071 1.42515 1.80474 2.2615C0.918765 3.09785 0.87768 4.49419 1.71403 5.38016L13.3219 17.6829L9.78855 13.9384Z" stroke="#222222" stroke-width="2.01675" stroke-miterlimit="10" stroke-linecap="round" stroke-linejoin="round"/>
</g>
</svg>
