<svg width="25" height="25" viewBox="0 0 25 25" fill="none" xmlns="http://www.w3.org/2000/svg">
<g id="material-symbols:featured-seasonal-and-gifts">
<path id="Vector" d="M4.10144 22.436V11.436H2.10144V5.436H7.30144C7.21811 5.286 7.16411 5.12767 7.13944 4.961C7.11477 4.79434 7.10211 4.61934 7.10144 4.436C7.10144 3.60267 7.39311 2.89434 7.97644 2.311C8.55977 1.72767 9.26811 1.436 10.1014 1.436C10.4848 1.436 10.8431 1.507 11.1764 1.649C11.5098 1.791 11.8181 1.98667 12.1014 2.236C12.3848 1.96934 12.6931 1.76934 13.0264 1.636C13.3598 1.50267 13.7181 1.436 14.1014 1.436C14.9348 1.436 15.6431 1.72767 16.2264 2.311C16.8098 2.89434 17.1014 3.60267 17.1014 4.436C17.1014 4.61934 17.0848 4.79034 17.0514 4.949C17.0181 5.10767 16.9681 5.27 16.9014 5.436H22.1014V11.436H20.1014V22.436H4.10144ZM14.1014 3.436C13.8181 3.436 13.5808 3.532 13.3894 3.724C13.1981 3.916 13.1021 4.15334 13.1014 4.436C13.1008 4.71867 13.1968 4.95634 13.3894 5.149C13.5821 5.34167 13.8194 5.43734 14.1014 5.436C14.3834 5.43467 14.6211 5.33867 14.8144 5.148C15.0078 4.95734 15.1034 4.72 15.1014 4.436C15.0994 4.152 15.0034 3.91467 14.8134 3.724C14.6234 3.53334 14.3861 3.43734 14.1014 3.436ZM9.10144 4.436C9.10144 4.71934 9.19744 4.957 9.38944 5.149C9.58144 5.341 9.81877 5.43667 10.1014 5.436C10.3841 5.43534 10.6218 5.33934 10.8144 5.148C11.0071 4.95667 11.1028 4.71934 11.1014 4.436C11.1001 4.15267 11.0041 3.91534 10.8134 3.724C10.6228 3.53267 10.3854 3.43667 10.1014 3.436C9.81744 3.43534 9.58011 3.53134 9.38944 3.724C9.19877 3.91667 9.10277 4.154 9.10144 4.436ZM4.10144 7.436V9.436H11.1014V7.436H4.10144ZM11.1014 20.436V11.436H6.10144V20.436H11.1014ZM13.1014 20.436H18.1014V11.436H13.1014V20.436ZM20.1014 9.436V7.436H13.1014V9.436H20.1014Z" fill="#F19D27"/>
</g>
</svg>
