<svg width="25" height="25" viewBox="0 0 25 25" fill="none" xmlns="http://www.w3.org/2000/svg">
<g id="mdi:heart-outline">
<path id="Vector" d="M12.9641 18.986L12.8641 19.086L12.7541 18.986C8.00414 14.676 4.86414 11.826 4.86414 8.93601C4.86414 6.93601 6.36414 5.436 8.36414 5.436C9.90414 5.436 11.4041 6.43601 11.9341 7.79601H13.7941C14.3241 6.43601 15.8241 5.436 17.3641 5.436C19.3641 5.436 20.8641 6.93601 20.8641 8.93601C20.8641 11.826 17.7241 14.676 12.9641 18.986ZM17.3641 3.436C15.6241 3.436 13.9541 4.246 12.8641 5.516C11.7741 4.246 10.1041 3.436 8.36414 3.436C5.28414 3.436 2.86414 5.846 2.86414 8.93601C2.86414 12.706 6.26414 15.796 11.4141 20.466L12.8641 21.786L14.3141 20.466C19.4641 15.796 22.8641 12.706 22.8641 8.93601C22.8641 5.846 20.4441 3.436 17.3641 3.436Z" fill="black"/>
</g>
</svg>
