<svg width="25" height="25" viewBox="0 0 25 25" fill="none" xmlns="http://www.w3.org/2000/svg">
<g id="mdi:cart-outline">
<path id="Vector" d="M17.6268 18.7835C18.1573 18.7835 18.666 18.9942 19.041 19.3693C19.4161 19.7443 19.6268 20.253 19.6268 20.7835C19.6268 21.3139 19.4161 21.8226 19.041 22.1977C18.666 22.5728 18.1573 22.7835 17.6268 22.7835C17.0964 22.7835 16.5877 22.5728 16.2126 22.1977C15.8375 21.8226 15.6268 21.3139 15.6268 20.7835C15.6268 19.6735 16.5168 18.7835 17.6268 18.7835ZM1.62683 2.78348H4.89683L5.83683 4.78348H20.6268C20.892 4.78348 21.1464 4.88883 21.3339 5.07637C21.5215 5.26391 21.6268 5.51826 21.6268 5.78348C21.6268 5.95348 21.5768 6.12348 21.5068 6.28348L17.9268 12.7535C17.5868 13.3635 16.9268 13.7835 16.1768 13.7835H8.72683L7.82683 15.4135L7.79683 15.5335C7.79683 15.5998 7.82317 15.6634 7.87005 15.7103C7.91694 15.7571 7.98053 15.7835 8.04683 15.7835H19.6268V17.7835H7.62683C7.0964 17.7835 6.58769 17.5728 6.21262 17.1977C5.83754 16.8226 5.62683 16.3139 5.62683 15.7835C5.62683 15.4335 5.71683 15.1035 5.86683 14.8235L7.22683 12.3735L3.62683 4.78348H1.62683V2.78348ZM7.62683 18.7835C8.15726 18.7835 8.66597 18.9942 9.04104 19.3693C9.41612 19.7443 9.62683 20.253 9.62683 20.7835C9.62683 21.3139 9.41612 21.8226 9.04104 22.1977C8.66597 22.5728 8.15726 22.7835 7.62683 22.7835C7.0964 22.7835 6.58769 22.5728 6.21262 22.1977C5.83754 21.8226 5.62683 21.3139 5.62683 20.7835C5.62683 19.6735 6.51683 18.7835 7.62683 18.7835ZM16.6268 11.7835L19.4068 6.78348H6.76683L9.12683 11.7835H16.6268Z" fill="black"/>
</g>
</svg>
