<svg width="21" height="18" viewBox="0 0 21 18" fill="none" xmlns="http://www.w3.org/2000/svg">
<path id="Vector" d="M14.9497 0.549469C13.2007 0.549469 11.6484 1.23986 10.5967 2.42651C9.54496 1.23986 7.99266 0.549469 6.2436 0.549469C4.72022 0.551312 3.25976 1.15729 2.18257 2.23448C1.10538 3.31167 0.499402 4.77213 0.497559 6.29551C0.497559 12.5935 9.70951 17.6257 10.1013 17.8372C10.2535 17.9192 10.4237 17.9621 10.5967 17.9621C10.7696 17.9621 10.9398 17.9192 11.092 17.8372C11.4838 17.6257 20.6958 12.5935 20.6958 6.29551C20.6939 4.77213 20.0879 3.31167 19.0107 2.23448C17.9336 1.15729 16.4731 0.551312 14.9497 0.549469ZM14.4718 12.9435C13.2592 13.9724 11.963 14.8985 10.5967 15.7121C9.23028 14.8985 7.93409 13.9724 6.72156 12.9435C4.83495 11.325 2.58703 8.85685 2.58703 6.29551C2.58703 5.32573 2.97227 4.39566 3.65801 3.70992C4.34375 3.02418 5.27382 2.63894 6.2436 2.63894C7.79329 2.63894 9.0905 3.45731 9.62941 4.77542C9.70785 4.96757 9.84174 5.13201 10.014 5.24775C10.1863 5.3635 10.3891 5.42532 10.5967 5.42532C10.8042 5.42532 11.007 5.3635 11.1793 5.24775C11.3516 5.13201 11.4855 4.96757 11.5639 4.77542C12.1028 3.45731 13.4 2.63894 14.9497 2.63894C15.9195 2.63894 16.8496 3.02418 17.5353 3.70992C18.221 4.39566 18.6063 5.32573 18.6063 6.29551C18.6063 8.85685 16.3584 11.325 14.4718 12.9435Z" fill="black"/>
</svg>
